<svg xmlns="http://www.w3.org/2000/svg" width="438.53" height="438.53" viewBox="0 0 438.529 438.529"><path d="M436.25 181.44c-1.53-2-3.52-3.2-6-3.57l-52.24-8c-2.8-9.13-6.7-18.46-11.7-27.98 3.5-4.8 8.6-11.5 15.4-20.2 6.9-8.7 11.8-15 14.6-19 1.6-2.1 2.3-4.3 2.3-6.6 0-2.7-.6-4.8-2-6.3-6.8-9.7-22.5-25.9-47.1-48.6-2.3-1.9-4.6-2.9-7.1-2.9-2.8 0-5.1.83-6.8 2.54L295 71.6c-7.8-4-16.38-7.52-25.7-10.57l-8-52.53c-.2-2.48-1.3-4.53-3.3-6.14-2-1.63-4.3-2.44-7-2.44h-63.4c-5.53 0-8.95 2.66-10.28 8-2.47 9.5-5.23 27.2-8.27 53.1-8.95 2.85-17.6 6.47-25.98 10.85l-39.4-30.54c-2.48-1.9-4.95-2.86-7.43-2.86-4.17 0-13.16 6.8-26.96 20.43-13.8 13.6-23.17 23.84-28.13 30.7-1.7 2.46-2.55 4.65-2.55 6.55 0 2.3.95 4.6 2.85 6.88C54.2 118.5 64.38 131.63 72 142.48c-4.76 8.76-8.47 17.52-11.13 26.27l-53.1 8c-2.1.38-3.9 1.6-5.43 3.7-1.54 2.1-2.3 4.3-2.3 6.57v63.4c0 2.47.76 4.7 2.28 6.7 1.53 2 3.52 3.2 6 3.57l52.25 7.7c2.66 9.3 6.56 18.7 11.7 28.2-3.42 4.7-8.56 11.4-15.4 20.1-6.86 8.6-11.72 15-14.57 19-1.53 2.1-2.3 4.2-2.3 6.5 0 2.4.68 4.6 2 6.5 7.43 10.3 23.14 26.3 47.12 48 2.1 2.1 4.47 3.1 7.14 3.1 2.85 0 5.23-.9 7.13-2.6l40.2-30.56c7.8 4 16.4 7.5 25.7 10.56l8 52.53c.2 2.45 1.3 4.5 3.3 6.12 2 1.64 4.3 2.44 7 2.44H251c5.52 0 8.94-2.6 10.3-8 2.45-9.5 5.2-27.2 8.25-53.1 8.95-2.8 17.6-6.4 25.98-10.8l39.4 30.82c2.67 1.7 5.15 2.56 7.42 2.56 4.2 0 13.14-6.78 26.84-20.3 13.7-13.5 23.1-23.8 28.2-30.83 1.7-1.9 2.5-4.1 2.5-6.52 0-2.47-1-4.86-2.9-7.13-13.7-16.74-23.9-29.86-30.6-39.4 3.8-7 7.5-15.7 11.1-25.96l52.8-8c2.3-.36 4.2-1.6 5.7-3.7 1.52-2.1 2.3-4.3 2.3-6.56v-63.3c0-2.5-.77-4.7-2.3-6.7zm-165.3 89.5c-14.27 14.28-31.5 21.42-51.68 21.42s-37.4-7.14-51.68-21.42c-14.3-14.27-21.5-31.5-21.5-51.67 0-20.18 7.1-37.4 21.4-51.68 14.3-14.3 31.5-21.5 51.7-21.5 20.1 0 37.4 7.1 51.6 21.4 14.2 14.3 21.4 31.5 21.4 51.7 0 20.1-7.2 37.4-21.4 51.6z"/></svg>