<svg xmlns="http://www.w3.org/2000/svg" viewBox="0 0 512 512"><path d="M348.16 384h30.72v30.72h-30.72zm0-51.2h30.72v30.72h-30.72zM245.76 384h30.72v30.72h-30.72zm51.2 0h30.72v30.72h-30.72zm-153.6-51.2h30.72v30.72h-30.72zm0 51.2h30.72v30.72h-30.72zm102.4-51.2h30.72v30.72h-30.72zm153.6 51.2h30.72v30.72h-30.72zm-204.8-51.2h30.72v30.72h-30.72zm0 51.2h30.72v30.72h-30.72zm102.4-51.2h30.72v30.72h-30.72zm102.4 0h30.72v30.72h-30.72z" fill="#D8D8D8"/><circle cx="481.28" cy="35.84" r="10.24" fill="#FFF"/><circle cx="71.68" cy="343.04" r="10.24" fill="#D8D8D8"/><path d="M20.48 189.44V486.4h460.8V189.44H20.48zm163.84 286.72h-61.44v-20.48h61.44v20.48zm81.92 0H204.8v-20.48h61.44v20.48zm81.92 0h-61.44v-20.48h61.44v20.48zm81.92 0h-61.44v-20.48h61.44v20.48zm20.48-112.64v61.44c0 5.66-4.6 10.24-10.24 10.24h-307.2c-5.66 0-10.24-4.58-10.24-10.24v-102.4c0-5.66 4.6-10.24 10.24-10.24h307.2c5.66 0 10.24 4.58 10.24 10.24v40.96zM40.96 220.16c0-5.66 4.58-10.24 10.24-10.24h399.36c5.66 0 10.24 4.58 10.24 10.24v61.44c0 5.66-4.6 10.24-10.24 10.24H51.2c-5.66 0-10.24-4.58-10.24-10.24v-61.44zm30.72 92.16c16.94 0 30.72 13.78 30.72 30.72 0 16.94-13.78 30.72-30.72 30.72s-30.72-13.78-30.72-30.72c0-16.94 13.78-30.72 30.72-30.72zM40.96 455.68h61.44v20.48H40.96v-20.48z" fill="#F58CAC"/><path d="M389.12 230.4h51.2v40.96h-51.2zm-327.68 0h307.2v40.96H61.44z" fill="#D8D8D8"/><g fill="#314E55"><path d="M51.2 291.84h399.36c5.66 0 10.24-4.58 10.24-10.24v-61.44c0-5.66-4.6-10.24-10.24-10.24H51.2c-5.66 0-10.24 4.58-10.24 10.24v61.44c0 5.66 4.6 10.24 10.24 10.24zm389.12-61.44v40.96h-51.2V230.4h51.2zm-378.88 0h307.2v40.96H61.44V230.4z"/><path d="M481.28 66.56c16.94 0 30.72-13.78 30.72-30.72S498.22 5.12 481.28 5.12c-16.94 0-30.72 13.78-30.72 30.72 0 .37.1.7.1 1.08L29.17 168.96H10.24C4.58 168.96 0 173.54 0 179.2v317.44c0 5.66 4.6 10.24 10.24 10.24h481.28c5.66 0 10.24-4.58 10.24-10.24V179.2c0-5.66-4.6-10.24-10.24-10.24H97.66L458.28 56c5.64 6.42 13.8 10.56 23 10.56zm0 419.84H20.48V189.44h460.8V486.4zm0-460.8c5.64 0 10.24 4.6 10.24 10.24s-4.6 10.24-10.24 10.24c-5.64 0-10.24-4.6-10.24-10.24s4.6-10.24 10.24-10.24z"/><path d="M71.68 373.76c16.94 0 30.72-13.78 30.72-30.72 0-16.94-13.78-30.72-30.72-30.72s-30.72 13.78-30.72 30.72c0 16.94 13.78 30.72 30.72 30.72zm0-40.96c5.64 0 10.24 4.6 10.24 10.24 0 5.65-4.6 10.24-10.24 10.24s-10.24-4.6-10.24-10.24c0-5.65 4.6-10.24 10.24-10.24zM40.96 455.68h61.44v20.48H40.96zm81.92 0h61.44v20.48h-61.44zm81.92 0h61.44v20.48H204.8zm81.92 0h61.44v20.48h-61.44zm81.92 0h61.44v20.48h-61.44zm71.68-143.36h-307.2c-5.66 0-10.24 4.58-10.24 10.24v102.4c0 5.66 4.6 10.24 10.24 10.24h307.2c5.66 0 10.24-4.58 10.24-10.24v-102.4c0-5.66-4.58-10.24-10.24-10.24zm-163.84 51.2h-30.72V332.8h30.72v30.72zm20.48-30.72h30.72v30.72h-30.72V332.8zm-71.68 30.72h-30.72V332.8h30.72v30.72zm0 20.48v30.72h-30.72V384h30.72zm20.48 0h30.72v30.72h-30.72V384zm51.2 0h30.72v30.72h-30.72V384zm51.2 0h30.72v30.72h-30.72V384zm0-20.48V332.8h30.72v30.72h-30.72zm-204.8-30.72h30.72v30.72h-30.72V332.8zm0 51.2h30.72v30.72h-30.72V384zm286.72 30.72h-30.72V384h30.72v30.72zm-30.72-51.2V332.8h30.72v30.72h-30.72z"/></g></svg>